<svg width="26" height="19" viewBox="0 0 26 19" fill="none" xmlns="http://www.w3.org/2000/svg">
<path d="M13.5113 18.1819C10.9037 18.1819 8.28313 18.1819 5.67554 18.1819C4.76743 18.1819 4.06688 17.8057 3.53498 17.0792C3.45715 16.9625 3.40525 16.8457 3.34039 16.729C3.30147 16.6382 3.22363 16.5992 3.13282 16.5733C2.06903 16.3009 1.38146 15.6392 1.08308 14.5884C0.745778 13.3689 1.30362 12.1884 2.28957 11.5397C2.49714 11.41 2.73066 11.3192 2.96417 11.2414C3.05499 11.2154 3.0939 11.1505 3.0939 11.0597C3.0939 11.0078 3.0939 10.9559 3.0939 10.9041C3.0939 8.4262 3.0939 5.94834 3.0939 3.47049C3.0939 2.75697 3.27553 2.10831 3.76851 1.58939C4.23554 1.09641 4.80635 0.798036 5.49392 0.785063C6.02582 0.77209 6.55771 0.785063 7.10258 0.785063C11.8378 0.785063 16.5859 0.785063 21.3211 0.785063C21.84 0.785063 22.333 0.888846 22.7741 1.16128C23.2281 1.45966 23.5784 1.86183 23.773 2.36777C23.9287 2.74399 23.9676 3.12021 23.9546 3.52238C23.9416 4.81968 23.9546 6.12997 23.9546 7.42727C23.9546 7.50511 23.9546 7.58295 23.9416 7.64782C23.8897 7.88133 23.747 7.98512 23.4746 7.97214C23.28 7.95917 23.1762 7.81647 23.1762 7.58295C23.1762 6.71376 23.1762 5.84456 23.1762 4.97536C23.1762 4.92347 23.1762 4.88455 23.1762 4.83266C23.1762 4.70293 23.1243 4.67698 23.0076 4.75482C22.6703 4.96239 22.333 5.16996 21.9957 5.36455C20.374 6.35051 18.7524 7.33646 17.1308 8.32241C16.4562 8.72458 15.7945 9.16567 15.107 9.54188C14.1599 10.0478 13.1999 10.0478 12.2788 9.51594C10.8907 8.72458 9.52855 7.8943 8.16637 7.06403C6.92096 6.32456 5.67554 5.57212 4.43013 4.83266C4.31337 4.75482 4.18364 4.68995 4.06688 4.62509C3.93715 4.54725 3.91121 4.56023 3.89824 4.72888C3.89824 4.78077 3.89824 4.81969 3.89824 4.87158C3.89824 8.10187 3.89824 11.3322 3.89824 14.5625C3.89824 14.6662 3.89823 14.783 3.87229 14.8868C3.83337 15.0425 3.66472 15.1722 3.52201 15.1722C3.35336 15.1722 3.17174 15.0425 3.13282 14.8868C3.10688 14.783 3.0939 14.6792 3.0939 14.5625C3.0939 13.81 3.0939 13.0576 3.0939 12.3051C3.0939 12.0846 3.06796 12.0716 2.87336 12.1624C2.30255 12.4349 1.97822 12.8889 1.82254 13.4987C1.56308 14.5106 2.25065 15.5614 3.22364 15.8079C3.59985 15.8987 3.98904 15.8857 4.36526 15.7949C4.91013 15.6522 5.44203 15.5095 5.9869 15.3668C6.63555 15.1852 7.29717 15.0035 7.94583 14.8349C8.60746 14.6533 9.28206 14.4846 9.94368 14.303C10.5664 14.1343 11.1891 13.9527 11.8118 13.7841C12.3307 13.6414 12.8367 13.5116 13.3556 13.3689C13.7967 13.2522 14.2507 13.1224 14.6918 13.0057C15.2237 12.863 15.7686 12.7333 16.3005 12.5776C16.6767 12.4738 17.0529 12.37 17.4421 12.2662C17.8832 12.1495 18.3113 12.0327 18.7524 11.903C19.1935 11.7862 19.6216 11.6695 20.0627 11.5527C20.4778 11.436 20.9059 11.3322 21.334 11.2154C21.6973 11.1116 22.0605 10.9949 22.4368 10.917C22.5405 10.8911 22.5795 10.8392 22.5535 10.7095C22.4238 10.2684 22.307 9.81432 22.2032 9.36026C22.0865 8.89323 22.5146 8.49106 22.9816 8.59485C23.3838 8.68566 23.747 8.89323 24.1362 9.04891C24.5514 9.21756 24.9665 9.39918 25.3816 9.5808C25.4595 9.61972 25.5373 9.64567 25.6152 9.69756C26.0044 9.9181 26.0692 10.3332 25.8876 10.7224C25.7579 11.0078 25.5243 11.2414 25.3427 11.5008C25.0054 11.9419 24.6811 12.383 24.3438 12.837C24.1622 13.0835 23.9287 13.2003 23.6173 13.1614C23.3578 13.1225 23.1632 12.9408 23.0984 12.6814C23.0205 12.37 22.9297 12.0587 22.8389 11.7473C22.813 11.6565 22.774 11.6435 22.6832 11.6695C21.9567 11.8641 21.2303 12.0716 20.5038 12.2662C19.5438 12.5257 18.5837 12.7852 17.6237 13.0446C16.6248 13.317 15.6389 13.5765 14.6399 13.8489C13.9913 14.0176 13.3556 14.2122 12.707 14.3808C11.8248 14.6144 10.9426 14.8479 10.0475 15.0814C9.5026 15.2241 8.9707 15.3798 8.42583 15.5225C7.75123 15.7041 7.07663 15.8727 6.41501 16.0544C5.7923 16.223 5.1696 16.4046 4.54689 16.5733C4.48202 16.5863 4.40418 16.6122 4.33932 16.6122C4.19661 16.6252 4.20959 16.69 4.27445 16.7809C4.5858 17.1441 4.975 17.3906 5.46798 17.4036C5.51987 17.4036 5.55878 17.4036 5.61068 17.4036C10.8648 17.4036 16.1318 17.4036 21.3859 17.4036C22.0865 17.4036 22.5924 17.1052 22.9427 16.5084C23.1113 16.21 23.1503 15.8857 23.1632 15.5614C23.1892 15.1592 23.1632 14.7571 23.1632 14.3419C23.1632 14.1214 23.3059 13.9527 23.5005 13.9398C23.7081 13.9268 23.9416 14.0954 23.9416 14.316C23.9416 14.9257 24.0195 15.5354 23.9027 16.1192C23.7081 17.1182 23.1113 17.7928 22.1513 18.1171C21.9049 18.1949 21.6324 18.2209 21.373 18.2209C18.7654 18.1819 16.1448 18.1819 13.5113 18.1819ZM13.5372 1.56345C10.9296 1.56345 8.30908 1.56345 5.70149 1.56345C5.57176 1.56345 5.44203 1.56344 5.3123 1.57642C4.54689 1.71912 3.97607 2.38075 3.92418 3.17211C3.89823 3.45751 4.00201 3.60022 4.2485 3.74292C5.31229 4.35266 6.36312 5.00131 7.41394 5.63699C8.11448 6.05213 8.81503 6.46727 9.51558 6.88241C10.5534 7.50511 11.5783 8.11485 12.6161 8.73755C12.9534 8.94512 13.3167 9.06188 13.7188 9.07485C14.1859 9.08783 14.601 8.91918 15.0032 8.68566C15.8075 8.20566 16.5989 7.72565 17.3902 7.23268C18.4929 6.55808 19.5957 5.89645 20.6854 5.22185C21.4638 4.75482 22.2422 4.27482 23.0205 3.80779C23.0984 3.75589 23.2022 3.71697 23.2022 3.60022C23.2022 3.19805 23.1762 2.80886 22.9687 2.45859C22.6314 1.86183 22.1124 1.56345 21.4249 1.56345C18.7913 1.56345 16.1578 1.56345 13.5372 1.56345ZM23.0984 9.56783C23.1114 9.59377 23.1113 9.6327 23.1243 9.65864C23.2151 9.97 23.293 10.2813 23.3838 10.5927C23.5135 11.0727 23.6432 11.5527 23.76 12.0197C23.7989 12.1495 23.8378 12.1365 23.9157 12.0457C24.3049 11.5138 24.6941 10.9949 25.0962 10.463C25.1741 10.3462 25.1481 10.2943 25.0314 10.2424C24.8887 10.1776 24.733 10.1257 24.5903 10.0608C24.1492 9.86621 23.7081 9.67162 23.2541 9.47702C23.1762 9.46405 23.0984 9.45107 23.0984 9.56783Z" fill="#C4C4C4"/>
</svg>
