<svg width="26" height="25" viewBox="0 0 26 25" fill="none" xmlns="http://www.w3.org/2000/svg">
<path d="M12.982 24.959C12.7479 24.8224 12.6699 24.6209 12.6699 24.3478C12.6764 22.2869 12.6699 20.226 12.6764 18.165C12.6764 17.7034 12.839 17.5474 13.3136 17.5409C15.9336 17.4954 17.9166 16.3641 19.2103 14.0691C19.5614 13.445 19.7695 12.7624 19.8865 12.0537C19.919 11.8392 19.8865 11.7936 19.6654 11.8522C18.2741 12.2227 16.8763 12.5803 15.4785 12.9314C14.3408 13.2175 13.2746 12.5738 13.0145 11.4621C12.6959 10.0708 13.9572 8.7835 15.342 9.11507C16.7788 9.45964 18.2026 9.84322 19.6264 10.2073C19.919 10.2853 19.919 10.2853 19.88 9.98625C19.4964 7.31418 17.1949 5.01919 14.5098 4.6291C14.1002 4.57059 13.6906 4.53808 13.2746 4.53158C12.852 4.52508 12.6764 4.35604 12.6764 3.94646C12.6764 2.83472 12.6764 1.72298 12.6764 0.611237C12.6764 0.195148 12.852 0.0261114 13.2681 0.01961C17.0064 -0.012897 20.153 1.3524 22.6886 4.08298C24.4765 6.0074 25.5232 8.30889 25.8548 10.9225C25.8808 11.1045 25.9068 11.293 25.9328 11.4751C26.0043 12.2032 25.9978 12.8079 25.9328 13.5165C25.8548 14.0106 25.8223 14.5112 25.7052 15.0053C24.548 19.8814 21.5703 23.0541 16.7853 24.5364C16.0376 24.7639 15.2705 24.8615 14.4968 24.959C13.9897 24.959 13.4891 24.959 12.982 24.959ZM13.6841 21.2597C13.6841 22.0594 13.6906 22.8655 13.6776 23.6652C13.6776 23.8732 13.7036 23.9838 13.9507 23.9448C14.2238 23.8992 14.4968 23.9123 14.7764 23.8797C16.2782 23.7172 17.689 23.2621 19.0153 22.5405C19.1843 22.4494 19.1908 22.3519 19.1323 22.1894C18.5862 20.7006 18.0401 19.2052 17.5005 17.7099C17.4224 17.4954 17.3509 17.4759 17.1624 17.5864C16.1547 18.165 15.0689 18.4901 13.9052 18.5421C13.7101 18.5486 13.6841 18.6331 13.6841 18.7957C13.6841 19.6213 13.6841 20.4405 13.6841 21.2597ZM20.1595 21.7993C20.192 21.7733 20.2376 21.7538 20.2766 21.7213C21.7589 20.629 22.9031 19.2572 23.7288 17.6124C23.8003 17.4694 23.7808 17.3848 23.6508 17.2938C22.4935 16.4877 21.3428 15.6815 20.192 14.8688C20.049 14.7648 19.984 14.7908 19.893 14.9403C19.4964 15.5905 19.0348 16.1756 18.4497 16.6632C18.2936 16.7932 18.2871 16.9167 18.3521 17.0858C18.5992 17.7424 18.8398 18.4056 19.0803 19.0687C19.3924 19.9204 19.6979 20.7721 20.01 21.6238C20.0425 21.6953 20.036 21.7993 20.1595 21.7993ZM22.9486 11.5466C22.37 11.5466 21.7979 11.5531 21.2193 11.5401C21.0502 11.5401 20.9787 11.5921 20.9592 11.7676C20.8942 12.3918 20.7707 13.0029 20.5431 13.588C20.4781 13.7571 20.5106 13.8481 20.6601 13.9521C21.7784 14.7258 22.8901 15.5124 24.0084 16.2926C24.2294 16.4486 24.2359 16.4486 24.3269 16.1821C24.808 14.7453 25.0031 13.2695 24.8991 11.7546C24.8861 11.5921 24.8275 11.5466 24.6715 11.5466C24.0994 11.5466 23.5208 11.5466 22.9486 11.5466ZM22.8381 10.5389C23.4037 10.5389 23.9694 10.5389 24.5415 10.5389C24.6715 10.5389 24.7625 10.5259 24.73 10.3503C24.4635 9.00454 23.9889 7.73677 23.2737 6.56002C23.1957 6.43649 23.1242 6.41048 23.0007 6.5015C22.2075 7.06063 21.4078 7.61975 20.6146 8.17887C20.5236 8.24388 20.4781 8.30889 20.5236 8.42592C20.7642 9.05005 20.9007 9.70019 20.9722 10.3568C20.9917 10.5259 21.0827 10.5454 21.2193 10.5454C21.7524 10.5389 22.2985 10.5389 22.8381 10.5389ZM13.6841 2.2756C13.6841 2.50965 13.6841 2.7437 13.6841 2.98425C13.6841 3.48486 13.6841 3.48486 14.1847 3.54987C14.2108 3.54987 14.2303 3.55637 14.2563 3.56287C15.3225 3.6734 16.3107 4.00497 17.2404 4.53808C17.3704 4.6096 17.4224 4.58359 17.468 4.45356C17.728 3.73841 17.9816 3.02326 18.2481 2.3081C18.3066 2.15857 18.2676 2.09356 18.1246 2.03504C16.7658 1.43691 15.3485 1.10534 13.8597 1.06634C13.7166 1.05983 13.6711 1.10534 13.6711 1.24187C13.6841 1.57995 13.6841 1.92452 13.6841 2.2756ZM20.062 7.29468C20.088 7.28167 20.1205 7.26217 20.153 7.23616C20.9072 6.70955 21.6614 6.17643 22.422 5.64982C22.5391 5.5653 22.5326 5.50029 22.4545 5.39627C21.6028 4.31053 20.5756 3.41334 19.3989 2.69168C19.2753 2.62017 19.2233 2.62667 19.1713 2.7697C18.8983 3.53687 18.6187 4.31053 18.3326 5.0777C18.2871 5.20122 18.3066 5.29224 18.4107 5.37676C19.0218 5.89687 19.5159 6.51451 19.932 7.19715C19.958 7.24266 19.9775 7.30118 20.062 7.29468ZM18.6122 11.0655C18.6122 11.046 18.6057 11.0265 18.6057 11.0135C17.624 10.7599 16.6488 10.5064 15.6671 10.2528C15.472 10.2008 15.277 10.1488 15.0754 10.1098C14.7244 10.0383 14.3278 10.2073 14.1327 10.5259C13.9247 10.8574 13.9247 11.202 14.1262 11.5401C14.3148 11.8587 14.7049 12.0472 15.0624 11.9627C15.7906 11.7936 16.5057 11.6051 17.2274 11.4231C17.6955 11.306 18.1506 11.189 18.6122 11.0655Z" fill="#CCC6CA"/>
<path d="M5.88932 11.9951C6.85153 11.9951 7.82024 11.9951 8.78245 11.9951C9.90719 12.0016 10.7589 12.8403 10.7589 13.965C10.7654 15.3823 10.7589 16.8062 10.7589 18.2235C10.7589 18.6786 10.5898 18.8411 10.1477 18.8476C9.4846 18.8476 8.81495 18.8476 8.15181 18.8476C7.78123 18.8476 7.56668 18.6656 7.56668 18.347C7.56668 18.0284 7.77473 17.8399 8.14531 17.8399C8.60691 17.8399 9.06851 17.8334 9.53011 17.8399C9.69914 17.8399 9.75766 17.7814 9.75766 17.6123C9.75115 16.4226 9.75766 15.2263 9.75115 14.0366C9.74465 13.4124 9.34807 13.0158 8.73044 13.0093C8.02178 13.0028 7.31963 13.0093 6.61098 13.0028C6.42244 13.0028 6.37693 13.0743 6.37693 13.2499C6.38343 13.9455 6.38343 14.6477 6.37693 15.3433C6.37693 15.7139 6.18839 15.9285 5.87632 15.9285C5.56425 15.9285 5.37571 15.7139 5.36921 15.3498C5.36921 14.6607 5.36271 13.9715 5.36921 13.2824C5.36921 13.0939 5.3302 13.0093 5.11566 13.0093C4.42651 13.0223 3.73736 13.0093 3.04821 13.0158C2.39807 13.0223 2.00148 13.4189 1.99498 14.0691C1.98848 15.2458 1.99498 16.4226 1.98848 17.5993C1.98848 17.7879 2.04049 17.8594 2.23553 17.8529C2.69713 17.8399 3.15873 17.8464 3.62033 17.8529C3.97141 17.8529 4.17945 18.0479 4.17945 18.36C4.17945 18.6656 3.97141 18.8606 3.62033 18.8606C2.93118 18.8606 2.24204 18.8671 1.55289 18.8606C1.1693 18.8606 0.987265 18.6786 0.987265 18.2885C0.987265 16.8192 0.980763 15.3498 0.987265 13.887C0.993766 12.8923 1.86495 12.0276 2.85967 12.0146C3.88039 11.9951 4.88161 12.0016 5.88932 11.9951C5.88932 12.0016 5.88932 12.0016 5.88932 11.9951Z" fill="#CCC6CA"/>
<path d="M5.87677 4.21313C7.78818 4.21313 9.30301 5.72796 9.30301 7.63937C9.30301 9.55077 7.78168 11.0591 5.87027 11.0591C3.96536 11.0591 2.45703 9.53777 2.45703 7.61986C2.45703 5.72146 3.97836 4.21313 5.87677 4.21313ZM3.47125 7.63937C3.48425 8.95265 4.57649 10.0449 5.88327 10.0449C7.19005 10.0449 8.30179 8.95265 8.28879 7.63937C8.26928 6.26107 7.22906 5.22085 5.87027 5.23385C4.47897 5.24686 3.50376 6.30658 3.47125 7.63937Z" fill="#CCC6CA"/>
<path d="M6.3838 18.3344C6.3838 18.6271 6.16913 18.8418 5.88289 18.8418C5.59015 18.8418 5.37547 18.6271 5.38198 18.3344C5.38198 18.0547 5.59015 17.8465 5.86988 17.84C6.15611 17.8335 6.3773 18.0482 6.3838 18.3344Z" fill="#CCC6CA"/>
</svg>
