<svg width="26" height="26" viewBox="0 0 26 26" fill="none" xmlns="http://www.w3.org/2000/svg">
<path d="M0.984375 19.1344C0.984375 15.8761 3.65847 13.241 6.89075 13.241C10.1101 13.241 12.7971 15.8761 12.7842 19.1603C12.7712 22.3926 10.123 25.0407 6.85181 25.0148C3.64549 25.0018 0.984375 22.3926 0.984375 19.1344ZM6.89075 14.0328C4.08685 14.0198 1.7892 16.2915 1.77622 19.0954C1.75026 21.9642 4.07387 24.2229 6.83883 24.2489C9.6687 24.2749 11.9793 21.9642 11.9793 19.1473C11.9923 16.3175 9.65571 14.0068 6.89075 14.0328Z" fill="#CCC6CA"/>
<path d="M6.87796 0.000189286C10.1232 -0.0257728 12.7973 2.63534 12.7714 5.91954C12.7584 9.13884 10.1232 11.774 6.86498 11.774C3.65866 11.774 0.958599 9.13885 0.984561 5.84166C1.01052 2.62236 3.64568 -0.0257728 6.87796 0.000189286ZM6.87796 10.9822C9.6559 11.0081 11.9795 8.69749 11.9795 5.89358C11.9795 3.03775 9.6559 0.779047 6.9169 0.766066C4.07405 0.753085 1.77641 3.03775 1.77641 5.86762C1.77641 8.71047 4.07405 10.9951 6.87796 10.9822Z" fill="#CCC6CA"/>
<path d="M20.6247 6.2831C19.0281 6.2831 17.4314 6.2831 15.8347 6.2831C15.7439 6.2831 15.653 6.2831 15.5621 6.25713C15.3285 6.21819 15.2246 6.10137 15.2246 5.88069C15.2246 5.64703 15.3285 5.5302 15.5751 5.49126C15.653 5.47828 15.7309 5.47827 15.8217 5.47827C19.041 5.47827 22.2603 5.47827 25.4796 5.47827C25.5445 5.47827 25.6094 5.47828 25.6744 5.49126C25.895 5.5302 25.9599 5.60808 25.9729 5.82876C25.9989 6.20521 25.895 6.2831 25.5056 6.2831C23.857 6.2831 22.2344 6.2831 20.6247 6.2831Z" fill="#CCC6CA"/>
<path d="M20.6248 18.7319C22.2085 18.7319 23.8052 18.7319 25.3889 18.7319C25.4278 18.7319 25.4797 18.7319 25.5187 18.7319C25.9081 18.7449 26.0769 18.9916 25.9341 19.355C25.9081 19.4329 25.8302 19.4848 25.7523 19.4978C25.6615 19.5238 25.5706 19.5368 25.4797 19.5368C22.2475 19.5368 19.0152 19.5368 15.7829 19.5368C15.692 19.5368 15.6141 19.5238 15.5233 19.5108C15.3156 19.4719 15.2117 19.342 15.2247 19.1214C15.2247 18.9137 15.3286 18.7968 15.5363 18.7579C15.6401 18.7319 15.744 18.7319 15.8478 18.7319C17.4315 18.7319 19.0282 18.7319 20.6248 18.7319Z" fill="#CCC6CA"/>
<path d="M20.6121 21.354C22.2477 21.354 23.8703 21.354 25.5059 21.354C25.5838 21.354 25.6617 21.354 25.7266 21.367C25.8564 21.3929 25.9473 21.4578 25.9473 21.6266C25.9603 22.0939 25.9084 22.1458 25.441 22.1458C22.2217 22.1458 19.0024 22.1458 15.7831 22.1458C15.7053 22.1458 15.6274 22.1458 15.5625 22.1329C15.3288 22.0939 15.199 21.9381 15.225 21.6915C15.2379 21.4968 15.3937 21.367 15.6144 21.367C17.276 21.354 18.9375 21.354 20.6121 21.354Z" fill="#CCC6CA"/>
<path d="M20.612 8.10034C22.2476 8.10034 23.8702 8.10034 25.5058 8.10034C25.5707 8.10034 25.6357 8.10034 25.7006 8.10034C25.8563 8.1263 25.9342 8.21718 25.9472 8.37295C25.9602 8.82729 25.9083 8.8792 25.4669 8.8792C22.2346 8.8792 19.0023 8.8792 15.783 8.8792C15.6922 8.8792 15.6013 8.87921 15.5104 8.86623C15.3027 8.8143 15.2119 8.65853 15.2248 8.42487C15.2378 8.2691 15.3936 8.12631 15.5624 8.11333C15.6273 8.11333 15.6922 8.11333 15.7571 8.11333C17.3667 8.10035 18.9894 8.10034 20.612 8.10034Z" fill="#CCC6CA"/>
<path d="M18.9891 16.9146C17.8597 16.9146 16.7433 16.9146 15.614 16.9146C15.4322 16.9146 15.3024 16.8497 15.2375 16.6939C15.1726 16.5511 15.1986 16.3954 15.3024 16.2656C15.3673 16.1877 15.4452 16.1617 15.5361 16.1487C15.627 16.1357 15.7049 16.1357 15.7957 16.1357C17.9506 16.1357 20.1184 16.1357 22.2733 16.1357C22.455 16.1357 22.6108 16.1617 22.7146 16.3305C22.8574 16.5771 22.7146 16.8757 22.429 16.9146C22.3641 16.9276 22.2992 16.9146 22.2343 16.9146C21.1569 16.9146 20.0795 16.9146 18.9891 16.9146Z" fill="#CCC6CA"/>
<path d="M18.9895 3.66094C17.8602 3.66094 16.7438 3.66094 15.6144 3.66094C15.3289 3.66094 15.1861 3.50518 15.1991 3.21959C15.212 3.05084 15.3289 2.93401 15.5106 2.89507C15.5755 2.88208 15.6534 2.88208 15.7183 2.88208C17.8991 2.88208 20.0929 2.88208 22.2737 2.88208C22.4555 2.88208 22.5983 2.92102 22.7021 3.0768C22.8449 3.31045 22.7021 3.622 22.4295 3.64797C22.3646 3.66095 22.2997 3.64797 22.2348 3.64797C21.1703 3.66095 20.0799 3.66094 18.9895 3.66094Z" fill="#CCC6CA"/>
<path d="M6.87827 22.042C6.00854 22.042 5.12583 22.042 4.2561 22.042C3.87965 22.042 3.72388 21.8992 3.74984 21.5228C3.81474 20.3155 4.39889 19.4328 5.45036 18.8617C5.60613 18.7838 5.60613 18.7578 5.50228 18.628C5.04794 18.0568 4.97005 17.4208 5.26862 16.7717C5.60613 16.0707 6.19027 15.6943 6.9951 15.7332C8.09849 15.7851 8.78648 16.7717 8.66965 17.7453C8.63071 18.0438 8.51388 18.3294 8.33215 18.5761C8.17637 18.7708 8.17637 18.7838 8.38407 18.8876C8.86437 19.1472 9.24082 19.4977 9.53939 19.9521C9.86391 20.4453 10.0327 20.9905 10.0456 21.5877C10.0586 21.8862 9.88987 22.055 9.59131 22.055C8.66966 22.042 7.77396 22.042 6.87827 22.042ZM6.86529 21.2502C7.56627 21.2502 8.25426 21.2502 8.95524 21.2502C9.20188 21.2502 9.20188 21.2372 9.14995 21.0035C9.14995 20.9776 9.13697 20.9646 9.13697 20.9386C8.76052 19.7963 7.68309 19.0953 6.43691 19.329C5.51526 19.5107 4.90515 20.0819 4.63255 20.9905C4.55466 21.2502 4.55466 21.2502 4.82726 21.2502C5.50228 21.2502 6.17729 21.2502 6.86529 21.2502ZM6.87827 18.4722C7.46242 18.5241 7.89079 18.0049 7.87781 17.5116C7.86483 16.9534 7.46242 16.5121 6.87827 16.5251C6.30711 16.538 5.89171 16.9405 5.87873 17.4986C5.86575 17.927 6.29412 18.5371 6.87827 18.4722Z" fill="#CCC6CA"/>
<path d="M6.86479 8.77539C5.99506 8.77539 5.12533 8.77539 4.2556 8.77539C3.85318 8.77539 3.71039 8.6326 3.73635 8.23019C3.80126 7.15276 4.29454 6.32197 5.19023 5.72484C5.2811 5.65994 5.37197 5.62099 5.47581 5.56907C5.57966 5.51715 5.57966 5.45224 5.50178 5.36138C5.12533 4.933 5.03446 4.41376 5.12533 3.86856C5.24216 3.16758 5.94313 2.55747 6.64411 2.47958C7.52682 2.37573 8.24078 2.90795 8.5004 3.53104C8.76002 4.15413 8.68214 4.73828 8.30568 5.28349C8.14991 5.50416 8.14991 5.50417 8.37059 5.63398C9.11051 6.03639 9.59081 6.65948 9.86341 7.45132C9.95428 7.72392 10.0062 8.02249 10.0062 8.30808C10.0062 8.61962 9.85043 8.77539 9.53888 8.77539C8.65617 8.78837 7.76048 8.77539 6.86479 8.77539ZM6.87777 7.99653C7.56577 7.99653 8.25376 7.99653 8.95474 7.99653C9.20138 7.99653 9.20138 7.98354 9.14945 7.74989C9.14945 7.72392 9.13647 7.71094 9.13647 7.68498C8.74704 6.54265 7.69558 5.84167 6.42343 6.08831C5.50178 6.27005 4.89167 6.85419 4.61906 7.77585C4.55416 7.99653 4.55416 8.00951 4.8008 8.00951C5.4888 7.99653 6.17679 7.99653 6.87777 7.99653ZM6.87777 3.27142C6.29362 3.23248 5.87823 3.77768 5.87823 4.245C5.87823 4.79021 6.33257 5.25753 6.87777 5.24454C7.50086 5.21858 7.87731 4.81617 7.87731 4.25799C7.87731 3.72576 7.48788 3.24546 6.87777 3.27142Z" fill="#CCC6CA"/>
</svg>
