<svg width="24" height="25" viewBox="0 0 24 25" fill="none" xmlns="http://www.w3.org/2000/svg">
<path d="M7.80546 22.9499C5.75557 22.9499 3.71865 22.9499 1.66876 22.9499C1.48712 22.9499 1.31846 22.937 1.18872 22.8072C1.046 22.6775 1.00708 22.4958 0.994106 22.3272C0.981131 21.4579 0.981131 20.5887 0.994106 19.7194C1.00708 19.3042 1.03303 18.8891 1.0979 18.4739C1.2017 17.8252 1.35738 17.1895 1.59091 16.5667C1.92824 15.6975 2.3953 14.906 2.97913 14.1925C3.56296 13.4789 4.25058 12.8821 5.01605 12.3891C5.62583 11.9999 6.27453 11.6885 6.96215 11.455C6.9881 11.442 7.04 11.442 7.04 11.4031C7.04 11.3512 6.9881 11.3512 6.94918 11.3252C6.30048 10.936 5.71665 10.4689 5.23661 9.88511C4.76954 9.31425 4.41925 8.6915 4.18572 8.00388C3.92624 7.22544 3.80947 6.42104 3.87434 5.59071C3.9911 4.28033 4.45817 3.11267 5.32743 2.11367C6.00208 1.33523 6.83241 0.764379 7.79249 0.388132C8.60985 0.0767562 9.44018 -0.0400131 10.2965 0.011883C11.1009 0.050805 11.8663 0.271362 12.5929 0.634634C13.7605 1.21846 14.6428 2.08773 15.2525 3.24241C15.6028 3.90409 15.8234 4.61766 15.9142 5.35718C15.9791 5.91506 15.9661 6.45996 15.8753 7.01785C15.6677 8.30227 15.0969 9.40506 14.1887 10.3262C13.8254 10.7025 13.4102 11.0138 12.9432 11.2733C12.9172 11.2863 12.8913 11.2993 12.8783 11.3122C12.8394 11.3382 12.7875 11.3512 12.7875 11.3901C12.7875 11.442 12.8523 11.442 12.8913 11.455C13.5789 11.6885 14.2146 11.9999 14.8244 12.3761C15.7196 12.947 16.4851 13.6476 17.1208 14.4909C17.2116 14.6076 17.3024 14.7374 17.3803 14.8542C17.4322 14.932 17.4841 14.945 17.5749 14.932C18.1976 14.8412 18.8204 14.8541 19.4431 14.9969C20.4551 15.2304 21.3244 15.7234 22.0379 16.4889C22.6737 17.1765 23.0759 17.9809 23.2705 18.8891C23.3872 19.4469 23.4262 20.0048 23.3483 20.5627C23.1407 21.938 22.531 23.0797 21.4282 23.9489C20.7405 24.4809 19.9621 24.8052 19.1188 24.935C18.2236 25.0777 17.3414 24.9868 16.4851 24.6495C15.6158 24.3122 14.9022 23.7543 14.3184 23.0407C14.2276 22.924 14.1238 22.911 13.9941 22.911C11.9052 22.9499 9.85535 22.9499 7.80546 22.9499ZM7.84439 21.8861C9.6867 21.8861 11.529 21.8861 13.3713 21.8861C13.6308 21.8861 13.6308 21.8731 13.5659 21.6525C13.3973 21.1206 13.2805 20.5627 13.2805 20.0048C13.2805 19.2653 13.4362 18.5517 13.7476 17.8771C14.2665 16.7613 15.0709 15.931 16.1737 15.3991C16.3813 15.2953 16.3813 15.2953 16.2386 15.1007C15.9272 14.6985 15.5769 14.3222 15.1877 13.9849C14.5909 13.453 13.9162 13.0508 13.2026 12.7264C12.1647 12.2593 11.0619 12.0907 9.9332 12.0907C9.27152 12.0907 8.60985 12.1556 7.96115 12.3112C7.37732 12.454 6.81944 12.6486 6.28751 12.921C4.89929 13.6216 3.80947 14.6466 3.05698 16.0088C2.43422 17.1246 2.10987 18.3182 2.0969 19.5897C2.08392 20.2643 2.0969 20.939 2.0969 21.6136C2.0969 21.8861 2.0969 21.8861 2.36935 21.8861C4.18572 21.8861 6.01505 21.8861 7.84439 21.8861ZM4.93821 6.0967C4.9901 8.87313 7.11784 11.0528 9.89428 11.0528C12.7096 11.0528 14.8374 8.91206 14.8633 6.12265C14.8893 3.33323 12.6707 1.17954 9.95915 1.15359C7.14379 1.11467 4.97713 3.34621 4.93821 6.0967ZM18.3274 23.9619C20.494 24.0008 22.2845 22.1845 22.2845 20.0178C22.2845 17.7733 20.52 16.0088 18.2885 16.0088C16.0829 16.0088 14.3184 17.7603 14.3184 20.0048C14.3184 22.1585 16.1867 24.0268 18.3274 23.9619Z" fill="#CCC6CA"/>
</svg>
