<svg width="26" height="22" viewBox="0 0 26 22" fill="none" xmlns="http://www.w3.org/2000/svg">
<path d="M13.5234 21.9437C9.55617 21.9437 5.58895 21.9437 1.62173 21.9437C1.51767 21.9437 1.41362 21.9437 1.30956 21.9191C1.11445 21.8699 0.984375 21.7345 0.984375 21.5622C0.984375 21.4144 1.11445 21.2667 1.28354 21.2298C1.36158 21.2175 1.43963 21.2052 1.50467 21.2052C1.94691 21.2052 2.38916 21.2052 2.83141 21.2052C3.02652 21.2052 3.03952 21.1929 3.03952 21.0083C3.03952 19.802 3.03952 18.5958 3.03952 17.3772C3.03952 17.0079 3.22163 16.7741 3.55982 16.6141C3.66387 16.5648 3.76794 16.5648 3.87199 16.5648C4.75649 16.5648 5.64098 16.5771 6.51247 16.5648C7.00675 16.5648 7.38396 16.9341 7.38396 17.4387C7.39697 18.3742 7.38396 19.3097 7.38396 20.2451C7.38396 20.5036 7.38396 20.7621 7.38396 21.0083C7.38396 21.1437 7.42298 21.2052 7.57907 21.2052C7.83921 21.1929 8.11236 21.1929 8.37251 21.2052C8.51559 21.2052 8.56762 21.156 8.55462 21.0206C8.55462 20.4544 8.55462 19.8882 8.55462 19.3097C8.55462 19.1004 8.69769 18.9281 8.8928 18.9158C9.13994 18.8912 9.30904 19.0389 9.30904 19.285C9.30904 19.8389 9.30904 20.3928 9.30904 20.9467C9.30904 21.1929 9.30904 21.1929 9.56918 21.1929C10.3626 21.1929 11.1561 21.1929 11.9625 21.1929C12.1706 21.1929 12.1836 21.1806 12.1836 20.996C12.1836 18.9773 12.1836 16.9587 12.1836 14.9401C12.1836 14.7308 12.1576 14.7062 11.9235 14.7062C11.1431 14.7062 10.3626 14.7062 9.58219 14.7062C9.34806 14.7062 9.32204 14.7308 9.32204 14.9647C9.32204 15.9125 9.32204 16.8725 9.32204 17.8203C9.32204 18.1034 9.0619 18.2757 8.81476 18.165C8.67168 18.1034 8.58063 17.9926 8.58063 17.8449C8.58063 16.811 8.56762 15.7894 8.58063 14.7555C8.58063 14.3616 8.99686 13.9923 9.41309 13.9923C10.2846 13.9923 11.1691 14.0046 12.0406 13.98C12.4438 13.9677 12.9121 14.3123 12.9251 14.7924C12.9251 14.9155 12.9251 15.0509 12.9251 15.1739C12.9251 17.0941 12.9251 19.0143 12.9251 20.9344C12.9251 21.1806 12.9251 21.1806 13.1852 21.1806C13.4323 21.1806 13.6795 21.1806 13.9266 21.1806C14.0697 21.1806 14.1347 21.1437 14.1217 21.0083C14.1217 20.959 14.1217 20.9098 14.1217 20.8606C14.1217 18.0173 14.1217 15.1739 14.1217 12.3306C14.1217 11.8875 14.3689 11.5798 14.8111 11.469C14.8892 11.4567 14.9672 11.4444 15.0322 11.4444C15.8647 11.4444 16.6842 11.4444 17.5166 11.4444C18.0629 11.4444 18.4662 11.8014 18.4662 12.343C18.4662 15.2109 18.4662 18.0665 18.4662 20.9344C18.4662 21.1929 18.4662 21.1929 18.7393 21.1929C18.9865 21.1929 19.2206 21.1929 19.4677 21.1929C19.5848 21.1929 19.6498 21.156 19.6368 21.0329C19.6368 20.9836 19.6368 20.9344 19.6368 20.8852C19.6368 17.2172 19.6368 13.5492 19.6368 9.88122C19.6368 9.67197 19.6758 9.48734 19.7929 9.31502C19.962 9.06884 20.2091 8.93345 20.5343 8.93345C21.4058 8.93345 22.2643 8.92114 23.1358 8.93345C23.6561 8.93345 23.9943 9.27809 23.9943 9.75813C23.9943 10.9151 23.9943 12.0722 23.9943 13.2292C23.9943 13.5246 23.8512 13.6477 23.578 13.6231C23.4219 13.6107 23.2919 13.5 23.2789 13.34C23.2789 13.2784 23.2789 13.2169 23.2789 13.1553C23.2789 12.0722 23.2789 10.989 23.2789 9.91814C23.2789 9.63504 23.2659 9.62273 22.9667 9.62273C22.2123 9.62273 21.4578 9.62273 20.7034 9.62273C20.4173 9.62273 20.3912 9.64735 20.3912 9.91814C20.3912 13.2169 20.3912 16.5156 20.3912 19.8143C20.3912 20.2082 20.3912 20.6021 20.3912 20.996C20.3912 21.1437 20.4433 21.1806 20.5864 21.1806C21.4058 21.1806 22.2253 21.1806 23.0317 21.1806C23.2659 21.1806 23.2659 21.1806 23.2659 20.959C23.2659 18.9158 23.2659 16.8725 23.2659 14.8293C23.2659 14.7678 23.2659 14.7062 23.2659 14.6447C23.2789 14.46 23.4349 14.337 23.617 14.337C23.8122 14.337 23.9552 14.46 23.9682 14.6447C23.9682 14.7062 23.9682 14.7801 23.9682 14.8416C23.9682 16.8725 23.9682 18.9035 23.9682 20.9467C23.9682 21.1806 23.9682 21.1806 24.2154 21.1806C24.6446 21.1806 25.0739 21.1806 25.5031 21.1806C25.5681 21.1806 25.6332 21.1806 25.6982 21.1929C25.9063 21.2298 25.9844 21.3283 25.9844 21.5375C25.9844 21.7837 25.9323 21.8576 25.7112 21.8945C25.6202 21.9068 25.5161 21.9191 25.4251 21.9191C21.4839 21.9437 17.5036 21.9437 13.5234 21.9437ZM17.7508 16.7248C17.7508 15.297 17.7508 13.8692 17.7508 12.4414C17.7508 12.2076 17.7117 12.1706 17.4646 12.1706C16.6972 12.1706 15.9428 12.1706 15.1753 12.1706C14.9152 12.1706 14.8892 12.1952 14.8892 12.4414C14.8892 15.297 14.8892 18.1403 14.8892 20.996C14.8892 21.1929 14.9022 21.2052 15.1103 21.2052C15.9037 21.2052 16.6972 21.2052 17.4906 21.2052C17.7378 21.2052 17.7378 21.2052 17.7378 20.959C17.7508 19.5558 17.7508 18.1403 17.7508 16.7248ZM3.79395 19.2481C3.79395 19.8389 3.79395 20.4298 3.79395 21.0329C3.79395 21.156 3.83297 21.2052 3.97605 21.2052C4.82152 21.2052 5.667 21.2052 6.51247 21.2052C6.64254 21.2052 6.69457 21.156 6.69457 21.0329C6.69457 19.8512 6.69457 18.6696 6.69457 17.488C6.69457 17.291 6.65555 17.2664 6.46044 17.2664C5.667 17.2664 4.87355 17.2664 4.08011 17.2664C3.84598 17.2664 3.81996 17.291 3.81996 17.5126C3.79395 18.0911 3.79395 18.6696 3.79395 19.2481Z" fill="white"/>
<path d="M5.02929 12.3799C4.58705 12.3799 4.28788 12.1953 4.17081 11.8876C4.05375 11.5799 4.1578 11.2106 4.41795 11.0014C4.60005 10.8537 4.83418 10.8167 5.05531 10.7429C5.56259 10.5952 6.06987 10.4352 6.57716 10.2505C7.34459 9.97975 8.11202 9.68435 8.85343 9.36432C10.0501 8.84735 11.2078 8.24423 12.3134 7.56725C13.0288 7.12414 13.7051 6.65641 14.3555 6.12714C14.4986 6.01636 14.6417 5.9302 14.8238 6.00405C15.0969 6.11483 15.136 6.43485 14.8888 6.61948C13.7832 7.50571 12.5865 8.26885 11.3248 8.94582C10.4143 9.43817 9.46477 9.86898 8.50223 10.2629C7.70879 10.5829 6.91535 10.8783 6.1089 11.1491C5.73168 11.2722 5.35448 11.3829 4.97726 11.506C4.92524 11.5183 4.84719 11.543 4.8732 11.6168C4.89922 11.6907 4.96426 11.6907 5.02929 11.6784C5.5756 11.6168 6.1219 11.5922 6.6552 11.506C7.42263 11.3953 8.17705 11.2722 8.93148 11.0998C9.64688 10.9398 10.3493 10.7429 11.0517 10.5213C11.572 10.3613 12.0662 10.1644 12.5735 9.95514C13.8092 9.43817 14.9799 8.81043 16.0725 8.0596C17.087 7.35801 18.0106 6.57025 18.843 5.68403C19.2072 5.30246 19.5454 4.90858 19.8706 4.49008C20.0397 4.25622 20.2608 4.2316 20.495 4.40392C20.7161 4.55163 20.9502 4.69933 21.1713 4.84704C21.1973 4.87165 21.2364 4.89627 21.2754 4.87165C21.3014 4.84704 21.2884 4.81011 21.2754 4.78549C21.1973 4.03466 21.1193 3.28383 21.0282 2.533C20.9892 2.15144 20.9372 1.76987 20.8982 1.3883C20.8852 1.27752 20.8461 1.26521 20.7421 1.28983C20.0527 1.46215 19.3633 1.63447 18.6739 1.80679C18.2057 1.91757 17.7504 2.04066 17.2822 2.15144C17.2431 2.16374 17.2041 2.15144 17.1911 2.20067C17.1781 2.2376 17.2171 2.26221 17.2561 2.28683C17.4643 2.43453 17.6724 2.56993 17.8935 2.70533C18.1406 2.85303 18.2057 3.04997 18.0496 3.28383C17.6464 3.93619 17.1521 4.5147 16.6188 5.06859C16.4497 5.25322 16.2546 5.42554 16.0855 5.59786C15.9944 5.69633 15.8774 5.74557 15.7343 5.73326C15.6042 5.72095 15.4871 5.65941 15.4351 5.52401C15.3831 5.38862 15.3961 5.25322 15.5132 5.14244C15.8904 4.78549 16.2546 4.40392 16.6058 4.01005C16.8139 3.76387 17.009 3.50539 17.2041 3.24691C17.2691 3.16075 17.2301 3.11151 17.1521 3.06228C16.7879 2.82841 16.4237 2.56993 16.0465 2.33607C15.8904 2.2376 15.8774 2.1022 15.9034 1.9545C15.9294 1.79448 16.0335 1.72063 16.1895 1.68371C16.8659 1.52369 17.5423 1.35137 18.2317 1.17905C18.765 1.04365 19.3113 0.920568 19.8446 0.785172C20.2478 0.686703 20.664 0.588233 21.0673 0.489764C21.3925 0.403603 21.5615 0.538999 21.6006 0.859024C21.6656 1.32675 21.7046 1.79448 21.7567 2.26221C21.8347 2.85303 21.8867 3.45616 21.9518 4.04697C22.0038 4.57624 22.0558 5.09321 22.1079 5.62248C22.1209 5.77019 22.0688 5.89327 21.9258 5.95482C21.7827 6.02867 21.6396 6.01636 21.5095 5.9302C21.1973 5.72095 20.8722 5.5117 20.56 5.31477C20.521 5.29015 20.4819 5.26553 20.4429 5.2286C20.3519 5.15475 20.2738 5.15475 20.1828 5.25322C19.8576 5.63479 19.5324 6.01636 19.1812 6.37331C18.5699 7.00105 17.9195 7.57956 17.2171 8.10884C16.4237 8.71196 15.5912 9.25354 14.6937 9.73358C13.9133 10.1521 13.1198 10.5213 12.2874 10.8291C11.715 11.0383 11.1427 11.2475 10.5704 11.4199C9.89402 11.6168 9.20463 11.7891 8.50223 11.9245C7.87789 12.0476 7.25354 12.1461 6.61618 12.2445C6.25198 12.3061 5.87476 12.3184 5.51056 12.3553C5.32846 12.3676 5.15937 12.3799 5.02929 12.3799Z" fill="white"/>
</svg>
