<svg width="26" height="17" viewBox="0 0 26 17" fill="none" xmlns="http://www.w3.org/2000/svg">
<path d="M25.9061 10.5771C25.9061 10.4988 25.893 10.4205 25.893 10.3422L25.8539 10.0551C25.7886 9.58524 25.7234 9.08931 25.632 8.61948C25.5276 8.07135 25.4232 7.57542 25.3057 7.09254C25.0839 6.24425 24.8098 5.39595 24.4835 4.54765C24.0529 3.46443 23.5178 2.57699 22.8652 1.83309C22.0691 0.93259 21.1947 0.449709 20.1898 0.345303C19.5112 0.280049 18.8195 0.319201 18.1409 0.475811C17.8799 0.541064 17.6058 0.606321 17.3448 0.658524C17.0968 0.723778 16.8488 0.775976 16.6009 0.84123L16.1833 0.945635C15.7004 1.06309 15.2045 1.18055 14.6955 1.2719C14.3039 1.35021 13.8733 1.44156 13.4426 1.42851C12.9206 1.41546 12.3985 1.31106 11.8243 1.18055C11.4328 1.10225 11.0282 0.997842 10.6497 0.893436C10.3104 0.815132 9.95805 0.723773 9.61873 0.645469L9.52737 0.619366C8.94009 0.488858 8.33976 0.358352 7.73942 0.3192C7.62196 0.306149 7.50451 0.306152 7.38705 0.306152C6.70841 0.306152 6.10808 0.436657 5.55994 0.710723C4.95961 1.01089 4.43758 1.45461 3.91555 2.1202C3.40657 2.75969 2.98895 3.49053 2.62352 4.32578C2.34946 4.97832 2.1276 5.57865 1.95794 6.16594C1.91878 6.28339 1.89268 6.41391 1.85353 6.53136C1.81438 6.67492 1.77523 6.80542 1.73607 6.94898C1.61862 7.36661 1.50116 7.82339 1.4098 8.33237C1.29235 8.9588 1.21404 9.44168 1.16184 9.89846C1.08354 10.5118 1.00523 11.1774 0.99218 11.843C0.97913 12.2345 0.97913 12.7435 1.01828 13.2655C1.05743 13.8267 1.13574 14.4923 1.3837 15.1057C1.76217 16.0323 2.32336 16.5152 3.17166 16.6587C3.55013 16.724 3.9286 16.6979 4.33317 16.5804C4.803 16.4499 5.28588 16.2411 5.80791 15.9149C6.69536 15.3798 7.58281 14.7011 8.60077 13.7615C8.95314 13.4352 9.33161 13.1089 9.80144 12.8871C10.5714 12.5217 11.4328 12.2867 12.3463 12.1823C12.4507 12.1693 12.5682 12.1693 12.6726 12.1562C12.777 12.1562 12.8814 12.1432 12.9728 12.1432C13.5731 12.0779 14.1734 12.1171 14.8912 12.2084C15.348 12.2606 15.8309 12.3781 16.3921 12.5608C17.0577 12.7827 17.6058 13.0698 18.0626 13.4613C18.2322 13.6049 18.4149 13.7615 18.5846 13.9181C18.95 14.2313 19.3154 14.5706 19.707 14.8577C20.3334 15.3406 20.999 15.8366 21.7559 16.1889C22.3954 16.4891 23.1002 16.7501 23.9093 16.6196C24.4183 16.5413 24.8359 16.2933 25.1622 15.8757C25.5537 15.3798 25.8017 14.7533 25.9191 13.905C25.9191 13.8659 25.9322 13.8267 25.9322 13.7876C25.9452 13.6962 25.9452 13.5918 25.9844 13.5005V10.9817C25.9191 10.8642 25.9061 10.7207 25.9061 10.5771ZM24.7837 14.2444C24.6793 14.675 24.5488 14.9883 24.353 15.2493C24.1442 15.5233 23.7657 15.693 23.3873 15.693C23.309 15.693 23.2307 15.6799 23.1524 15.6669C22.1083 15.445 21.2861 14.8708 20.3856 14.2052C19.8244 13.7876 19.3024 13.3178 18.8195 12.874C18.2453 12.3389 17.5536 11.9344 16.7705 11.6473C15.8961 11.334 14.9695 11.1644 13.9255 11.1252C13.0902 11.0861 12.2811 11.1383 11.5241 11.2818C10.3496 11.4906 9.38382 11.8691 8.57467 12.4303C8.2745 12.6391 8.00044 12.8871 7.72637 13.135C7.58281 13.2655 7.4262 13.4091 7.26959 13.5266C6.56485 14.1269 5.82096 14.7403 4.95961 15.184C4.56809 15.3798 4.15046 15.5755 3.70674 15.6277C3.002 15.706 2.58437 15.445 2.31031 14.7272C2.04929 14.0616 2.01014 13.383 1.99709 12.8088C1.98404 11.7256 2.04929 10.7337 2.19285 9.781C2.28421 9.18066 2.40166 8.52812 2.57132 7.79728C2.76708 6.94898 3.002 6.13983 3.28911 5.38289C3.64148 4.45629 4.11131 3.38613 4.94656 2.49868C5.46859 1.95055 6.04282 1.61123 6.70841 1.45462C7.4262 1.29801 8.13094 1.37631 8.94009 1.53292C9.24026 1.59817 9.54043 1.66343 9.82754 1.74174C10.1277 1.82004 10.4409 1.89834 10.7411 1.95054C10.8977 1.97665 11.0543 2.02885 11.2109 2.068C11.3545 2.10716 11.5111 2.14631 11.6546 2.17241L11.733 2.18546C12.3202 2.30291 12.9336 2.43343 13.534 2.42038C13.8733 2.42038 14.2256 2.35512 14.565 2.30292L14.6824 2.28987C15.3089 2.18546 15.9222 2.0419 16.5226 1.88529C16.8488 1.80699 17.1751 1.71563 17.5144 1.65038L17.5797 1.63733C18.2192 1.49377 18.8848 1.35021 19.5765 1.37632C20.5292 1.41547 21.3644 1.80699 22.0561 2.56393C22.539 3.09901 22.9435 3.72545 23.3481 4.62595C23.6352 5.26544 23.8832 5.95713 24.1051 6.76628C24.2878 7.45797 24.4183 7.98 24.5227 8.48898C24.614 8.9588 24.6924 9.45473 24.7837 10.0812C24.8229 10.3552 24.849 10.6423 24.8751 10.9164C24.8881 11.0861 24.9012 11.2557 24.9273 11.4254C24.9534 11.6473 24.9403 11.8822 24.9403 12.0649C24.9403 12.1301 24.9403 12.1954 24.9403 12.2345C24.9795 12.9262 24.9273 13.5788 24.7837 14.2444Z" fill="#C6C8CC"/>
<path d="M10.4667 5.52633C10.2318 5.30447 9.93163 5.16091 9.59231 5.09566C9.51401 5.08261 9.37045 5.0565 9.37045 4.88684C9.37045 4.75634 9.31825 4.62583 9.26604 4.50838C9.00503 3.92109 8.57435 3.56872 7.97402 3.45126C7.85656 3.42516 7.73911 3.41211 7.6347 3.41211C7.29538 3.41211 6.98216 3.51652 6.69505 3.69923C6.27742 3.97329 6.02946 4.35176 5.92505 4.82159C5.8859 4.99125 5.82065 5.06956 5.65099 5.09566C4.69828 5.26532 4.05879 6.17887 4.22845 7.11853C4.34591 7.79717 4.93319 8.4236 5.54658 8.51495C5.82065 8.5541 5.89895 8.69766 5.95115 8.93258C6.12081 9.67647 6.85165 10.2377 7.64775 10.2377C8.4569 10.2377 9.21384 9.62426 9.3574 8.84122C9.39655 8.65851 9.48791 8.55411 9.67062 8.52801C10.0491 8.4758 10.3623 8.28004 10.6494 7.94072C11.2498 7.24903 11.1715 6.17887 10.4667 5.52633ZM9.59231 7.51005C9.39655 7.5753 9.17469 7.6014 8.90062 7.5753C8.74401 7.56225 8.62656 7.6275 8.54825 7.69275C8.4308 7.79716 8.35249 7.96682 8.35249 8.11038C8.35249 8.14953 8.35249 8.18868 8.35249 8.24089C8.35249 8.34529 8.35249 8.46275 8.33944 8.5802C8.28724 8.97173 8.02622 9.21969 7.62165 9.21969C7.21708 9.21969 6.92996 8.93258 6.91691 8.52801C6.91691 8.4758 6.91691 8.41055 6.91691 8.35835C6.91691 8.20174 6.92996 8.04513 6.86471 7.90157C6.77335 7.69276 6.57759 7.54919 6.36878 7.53614C6.30352 7.53614 6.22522 7.53614 6.15996 7.53614H5.99031C5.54658 7.53614 5.23336 7.24903 5.23336 6.85751C5.22031 6.46599 5.53353 6.16582 5.9642 6.13972C6.02946 6.13972 6.09471 6.13972 6.15996 6.13972C6.27742 6.13972 6.38183 6.13972 6.49928 6.11362C6.74725 6.06141 6.92996 5.8526 6.92996 5.60463C6.92996 5.52633 6.92996 5.44803 6.92996 5.36972C6.92996 5.29142 6.92996 5.21311 6.92996 5.13481C6.94301 4.74329 7.23013 4.45617 7.62165 4.44312C8.01317 4.44312 8.26114 4.63888 8.33944 5.04345C8.36554 5.16091 8.36554 5.27837 8.36554 5.39583C8.36554 5.43498 8.36554 5.47413 8.36554 5.52633C8.37859 5.9048 8.60046 6.11361 8.97893 6.12666C9.03113 6.12666 9.07028 6.12666 9.12249 6.12666C9.2791 6.12666 9.44875 6.11361 9.60536 6.19192C9.89248 6.30937 10.0491 6.57039 10.0491 6.88361C10.0491 7.14462 9.86638 7.41869 9.59231 7.51005Z" fill="#C6C8CC"/>
<path d="M17.7358 6.83155C17.7358 7.41884 17.2921 7.84951 16.7179 7.84951C16.4308 7.84951 16.1567 7.7451 15.9609 7.53629C15.7652 7.34053 15.6738 7.09256 15.6738 6.8185C15.6738 6.53138 15.8043 6.25732 16.0001 6.06155C16.1828 5.8919 16.4047 5.80054 16.6657 5.80054C16.6787 5.80054 16.7048 5.80054 16.7179 5.80054C16.9789 5.78749 17.2138 5.87885 17.4096 6.07461C17.6314 6.28342 17.7489 6.55749 17.7358 6.83155Z" fill="#C6C8CC"/>
<path d="M19.9679 4.6259C19.9679 4.86082 19.8635 5.12183 19.6547 5.31759C19.4459 5.5264 19.1849 5.64386 18.9108 5.64386C18.6367 5.64386 18.3627 5.51336 18.1538 5.2915C17.9711 5.09574 17.8798 4.84777 17.8928 4.61286C17.8798 4.37794 17.9842 4.11693 18.1669 3.92117C18.3627 3.71236 18.6237 3.60795 18.8977 3.60795H18.9238C19.5111 3.5949 19.9548 4.03862 19.9679 4.6259Z" fill="#C6C8CC"/>
<path d="M22.2001 6.81861C22.2001 7.09268 22.0957 7.3537 21.8999 7.54946C21.7041 7.74522 21.4301 7.86267 21.143 7.84962C20.5557 7.83657 20.125 7.39285 20.125 6.80556C20.125 6.54455 20.2425 6.28353 20.4382 6.08777C20.634 5.89201 20.895 5.7876 21.1691 5.80065C21.7302 5.8137 22.187 6.27048 22.2001 6.81861Z" fill="#C6C8CC"/>
<path d="M19.9679 9.0631C19.9679 9.62429 19.5111 10.0811 18.95 10.0811C18.6759 10.0811 18.4149 9.97666 18.2191 9.78089C18.0234 9.58513 17.9059 9.31107 17.919 9.037C17.919 8.60633 18.2844 8.01904 18.9369 8.01904H18.95C19.5111 8.04514 19.9679 8.48887 19.9679 9.0631Z" fill="#C6C8CC"/>
</svg>
