<svg width="25" height="25" viewBox="0 0 25 25" fill="none" xmlns="http://www.w3.org/2000/svg">
<path d="M24.7321 12.0754C24.7064 11.408 24.6294 10.7149 24.4754 9.98334C24.27 8.95656 23.9107 7.98112 23.3973 6.98001C23.0507 6.3126 22.64 5.6837 22.178 5.0933C21.7159 4.5029 21.2025 3.97668 20.6763 3.51462C20.0346 2.96273 19.3287 2.46218 18.5842 2.05146C18.3404 1.92312 18.0452 1.97446 17.9297 2.17981C17.8655 2.29532 17.8398 2.42367 17.8655 2.53918C17.904 2.66753 17.981 2.77021 18.1222 2.84722C18.5842 3.11675 19.0463 3.41195 19.4827 3.73282C20.3298 4.36172 21.087 5.1318 21.7929 6.09441C22.2293 6.69764 22.6143 7.36505 22.9224 8.10947C23.1791 8.7127 23.3844 9.3416 23.5256 9.95767C23.5898 10.2529 23.6411 10.5609 23.6925 10.8561L23.731 11.0871C23.808 11.5235 23.808 11.9599 23.808 12.3963V12.5375C23.808 13.0123 23.7951 13.5129 23.7053 14.0135L23.6668 14.206C23.6026 14.5397 23.5513 14.8734 23.4614 15.2071C23.3331 15.7076 23.1534 16.221 22.9481 16.7344C22.563 17.6585 22.0496 18.5185 21.4335 19.2757C21.4207 19.2885 21.4207 19.2885 21.4079 19.3014C21.4079 19.3014 21.395 19.2885 21.395 19.2757C21.2667 19.0447 21.1384 18.8265 21.01 18.6083L20.9202 18.4671C20.8046 18.2618 20.6891 18.0564 20.5608 17.851C20.2656 17.3377 19.9704 16.8114 19.6624 16.298C19.2388 15.5793 18.1479 15.1943 17.3521 15.4895C17.0954 15.5793 16.8515 15.7205 16.6205 15.8488C16.5692 15.8873 16.505 15.913 16.4537 15.9387C16.0301 16.1697 15.6194 16.4135 15.1959 16.6574L14.6568 16.9654C14.5926 17.004 14.5285 17.0425 14.4514 17.0553C14.2076 17.1066 13.9766 17.0039 13.7969 16.9141C13.5017 16.7601 13.2193 16.5419 12.9241 16.2467C12.3337 15.6691 11.7947 14.9632 11.2428 14.0135C10.6524 13.0252 10.2288 12.0754 9.94645 11.1256C9.8181 10.7021 9.70259 10.2529 9.71542 9.79082C9.72826 9.46995 9.77959 9.22609 9.99778 9.09774C10.293 8.91806 10.601 8.73837 10.8962 8.57152C11.1272 8.44317 11.3583 8.30199 11.5893 8.17364C11.692 8.10947 11.8075 8.05813 11.9102 7.99395C12.1669 7.85277 12.4364 7.69876 12.6802 7.50623C13.399 6.903 13.6172 5.99173 13.245 5.14464C13.1038 4.81094 12.9113 4.49007 12.7316 4.19487C12.6417 4.05369 12.5647 3.9125 12.4749 3.77132C12.2182 3.3221 11.9743 2.88572 11.7176 2.43651C11.5765 2.19265 11.4353 1.94879 11.2941 1.69209C11.2813 1.67926 11.2813 1.66642 11.2684 1.65359C11.2941 1.65359 11.3069 1.64075 11.3198 1.64075C11.8588 1.53807 12.4236 1.55091 12.9754 1.55091C13.1038 1.55091 13.2321 1.55091 13.3733 1.55091C13.7455 1.55091 14.1049 1.60225 14.4643 1.65359L14.5541 1.66642C15.2215 1.7691 15.9274 1.94878 16.6975 2.21831C16.8387 2.26965 16.9799 2.26965 17.0954 2.21831C17.1981 2.16698 17.2751 2.07713 17.3264 1.96162C17.4163 1.70492 17.2879 1.46107 17.0056 1.35839C16.736 1.25571 16.4922 1.1787 16.2483 1.10169C15.7606 0.947676 15.3627 0.857833 14.9905 0.79366C14.2333 0.678147 13.3348 0.562632 12.385 0.626805L12.1669 0.639641C11.7947 0.665311 11.3968 0.69098 11.0246 0.767989C10.8449 0.806493 10.7422 0.767989 10.6267 0.639641C10.0363 -0.0149314 9.02234 -0.19462 8.26509 0.228927C7.73887 0.511292 7.22548 0.819328 6.71209 1.10169C6.41689 1.26854 6.12169 1.44823 5.81366 1.61508C5.14625 2.00013 4.60719 2.53919 4.20931 3.21943C3.92695 3.70715 3.73443 4.24621 3.63175 4.83661C3.59324 5.01629 3.5419 5.15747 3.45206 5.27299C3.2082 5.56819 2.97718 5.90189 2.72048 6.32544C2.27126 7.08269 1.93756 7.7886 1.68087 8.50734C1.50118 9.03357 1.36 9.50846 1.27015 9.94484C1.15464 10.4967 1.07763 10.9588 1.05196 11.3952C1.05196 11.4722 1.03913 11.562 1.02629 11.639C1.00062 11.9471 0.974954 12.2679 0.987789 12.5888C1.01346 13.3075 1.0648 13.9108 1.15464 14.4627C1.27015 15.1686 1.44984 15.8488 1.68087 16.4906C2.00173 17.389 2.43812 18.2489 2.95151 19.019C3.60608 20.0073 4.389 20.8929 5.2746 21.6245C6.17303 22.3689 7.14847 22.9721 8.17525 23.4085C8.77848 23.6652 9.42022 23.8834 10.1261 24.0502C10.447 24.1272 10.7935 24.1914 11.1401 24.2428C11.5251 24.2941 11.9487 24.3326 12.4236 24.3583C12.9883 24.3839 13.5402 24.3454 14.0536 24.3069C14.1177 24.3069 14.1691 24.3069 14.2204 24.3326C14.4001 24.4096 14.5798 24.4866 14.7851 24.5765C15.1445 24.7176 15.5167 24.8075 15.8504 24.8973H15.8633C16.2226 24.9487 16.5435 25 16.89 25C17.1467 25 17.4163 24.9743 17.7371 24.8973C18.2505 24.769 18.7511 24.5508 19.2645 24.2428C19.5597 24.0631 19.8677 23.8962 20.1629 23.7294C20.548 23.5112 20.9458 23.2801 21.3309 23.0491C22.2293 22.4972 22.5373 21.2779 22.0111 20.3538C21.9341 20.2255 21.9469 20.1613 22.0368 20.0458C22.6785 19.2757 23.2176 18.4158 23.654 17.4917C24.116 16.4906 24.4497 15.3996 24.6166 14.2573C24.7192 13.5257 24.7578 12.807 24.7321 12.0754ZM11.1401 7.36505C11.1401 7.36505 11.1272 7.35222 11.1144 7.32655C10.5882 6.40245 10.062 5.47834 9.53573 4.56708C9.2662 4.09219 8.99667 3.63014 8.72715 3.15525L8.18809 2.23115C8.05974 2.01296 7.94423 1.8076 7.81588 1.58941C7.79021 1.55091 7.79021 1.53807 7.79021 1.53807C7.79021 1.53807 7.80304 1.52524 7.84155 1.49957C7.99556 1.42256 8.13675 1.33272 8.27793 1.25571C8.40628 1.1787 8.54746 1.08886 8.68864 1.02468C8.82982 0.947675 8.98384 0.934842 9.13786 0.922007C9.59991 0.922007 9.92078 1.10169 10.1518 1.49957C10.678 2.398 11.1914 3.29643 11.7048 4.2077L11.9487 4.64409C12.0899 4.90078 12.2439 5.15748 12.385 5.41417C12.6674 5.92756 12.4621 6.6078 11.9487 6.89017L11.7947 6.98001C11.5893 7.09552 11.3711 7.22387 11.1529 7.35222L11.1401 7.36505ZM16.6847 17.0296C16.6719 17.004 16.659 16.9783 16.6462 16.9654C16.6205 16.9269 16.6205 16.9141 16.6205 16.9141C16.6205 16.9141 16.6334 16.9013 16.6462 16.8884C16.7745 16.8243 16.9029 16.7473 17.0312 16.6702C17.2751 16.5291 17.5061 16.3879 17.7628 16.3109C18.0452 16.2339 18.3019 16.2852 18.6227 16.4906C18.8538 16.6317 18.9821 16.8628 19.1105 17.1066C19.1361 17.1451 19.1618 17.1965 19.1875 17.235C19.5212 17.8254 19.8549 18.4029 20.1886 18.9805L20.8046 20.0458C20.9458 20.3025 21.0998 20.5592 21.241 20.8159C21.318 20.9699 21.3437 21.1239 21.3309 21.2009V21.2137C21.3309 21.7271 21.1383 22.0608 20.7405 22.2919C20.5865 22.3817 20.4324 22.4716 20.2913 22.5486L20.0987 22.6641C20.0602 22.6897 19.9961 22.7283 19.9832 22.7283C19.9704 22.7154 19.919 22.6384 19.9062 22.5999L19.3158 21.586C19.0976 21.2138 18.8794 20.8287 18.6612 20.4565L16.7104 17.0553C16.6975 17.0553 16.6847 17.0425 16.6847 17.0296ZM9.75393 19.2372C9.71542 19.1859 9.67692 19.1345 9.62558 19.0832C9.57424 19.019 9.5229 18.9548 9.4844 18.9035C9.38172 18.7751 9.2277 18.711 9.07368 18.711C8.98384 18.711 8.88116 18.7366 8.80415 18.8008C8.5988 18.9548 8.57313 19.2244 8.73998 19.4554C8.95817 19.7506 9.20203 20.0458 9.47156 20.3795C10.0235 21.0341 10.6395 21.6758 11.3069 22.2919C11.7433 22.6897 12.2054 23.0748 12.6931 23.4213C12.5904 23.4085 12.5006 23.4213 12.3979 23.4213C12.3337 23.4213 12.2567 23.4213 12.1925 23.4213C11.6791 23.4085 11.1401 23.3315 10.4727 23.1775C9.92078 23.0491 9.36888 22.8823 8.80415 22.6641C8.08541 22.3817 7.3795 22.0095 6.69925 21.5475C5.81366 20.9442 5.0179 20.2126 4.35049 19.3912C3.58041 18.4414 2.97718 17.3762 2.56646 16.2467C2.30977 15.5408 2.13008 14.8734 2.04024 14.2316C1.89906 13.2562 1.87339 12.2808 1.97606 11.3053C2.06591 10.4454 2.27126 9.5983 2.5793 8.69986C2.78465 8.10947 3.06702 7.5319 3.4649 6.8645C3.4649 6.91584 3.4649 6.98001 3.4649 7.04418C3.4649 7.17253 3.4649 7.31371 3.49057 7.4549C3.55474 7.96829 3.63175 8.58435 3.7601 9.18759C3.86277 9.67531 4.00396 10.1887 4.18364 10.8048C4.47884 11.7674 4.85105 12.7428 5.32594 13.7953C5.71098 14.6424 6.16019 15.5151 6.64791 16.3622C6.96878 16.9269 7.35383 17.5302 7.84155 18.2618C7.95706 18.4414 8.11108 18.5313 8.26509 18.5441C8.40628 18.557 8.52179 18.4928 8.6373 18.3773C8.73998 18.2618 8.81699 18.0692 8.66297 17.8254L8.49612 17.5687C8.20092 17.1066 7.88005 16.6317 7.59769 16.1569C7.03296 15.2071 6.5324 14.2445 6.12169 13.3204C5.68531 12.3449 5.32594 11.3695 5.04357 10.3941C4.85105 9.72665 4.70987 9.18759 4.62002 8.66136C4.41467 7.58324 4.35049 6.63347 4.41467 5.77354C4.47884 4.97779 4.65853 4.32321 4.96656 3.75848C5.28743 3.18092 5.71098 2.74454 6.25004 2.43651L6.40406 2.34666C6.57091 2.25682 6.75059 2.15414 6.91745 2.05146C6.95595 2.02579 6.96878 2.02579 6.96878 2.02579C6.96878 2.02579 6.98162 2.0258 7.00729 2.07713C7.10997 2.25682 7.21264 2.43651 7.32816 2.62903C7.43084 2.79588 7.52068 2.96273 7.62336 3.12958C7.90572 3.60447 8.17525 4.09219 8.45762 4.56708L10.0491 7.36505C10.1261 7.50623 10.216 7.66025 10.3058 7.80143C10.3187 7.8271 10.3187 7.83994 10.3315 7.83994C10.3315 7.83994 10.3187 7.85277 10.293 7.86561C10.139 7.94261 9.99778 8.03246 9.8566 8.1223C9.77959 8.17364 9.70259 8.21214 9.61274 8.26348C9.1892 8.50734 8.94534 8.90522 8.86833 9.44428C8.75281 10.2657 8.95817 11.0358 9.13786 11.6134C9.47156 12.6401 9.94645 13.6669 10.6267 14.7579C11.2043 15.6948 11.7947 16.4521 12.4492 17.0553C12.7829 17.3633 13.245 17.7484 13.8354 17.9281C14.3231 18.0821 14.7595 18.0307 15.1445 17.7869C15.2729 17.697 15.4269 17.62 15.5552 17.543C15.6322 17.4917 15.7221 17.4532 15.7991 17.4018C15.7991 17.4018 15.7991 17.4018 15.8119 17.4018C15.8119 17.4018 15.8119 17.4018 15.8119 17.4147C16.2611 18.1976 16.7104 18.9805 17.1596 19.7634C17.3778 20.1485 17.6088 20.5463 17.827 20.9314L18.0323 21.2908C18.3789 21.894 18.7383 22.5101 19.0848 23.1133C19.1361 23.1903 19.1361 23.216 19.1361 23.2288C19.1361 23.2288 19.1233 23.2545 19.0463 23.2801C18.9179 23.3443 18.7768 23.4213 18.6484 23.4983C18.4174 23.6395 18.1992 23.7679 17.9425 23.8449C17.4034 24.0374 16.89 24.0887 16.4023 24.0374C15.6194 23.9475 14.8622 23.6652 14.0022 23.1775C13.2706 22.7539 12.5391 22.202 11.7818 21.4961C11.1401 20.8287 10.4598 20.11 9.75393 19.2372Z" fill="#C4C4C4"/>
</svg>
