<svg width="26" height="18" viewBox="0 0 26 18" fill="none" xmlns="http://www.w3.org/2000/svg">
<path d="M25.9844 16.7895C25.8326 17.0463 25.6342 17.198 25.3191 17.1396C25.0507 17.0929 24.8873 16.8945 24.8639 16.5561C24.8406 16.2526 24.8289 15.9608 24.7472 15.6691C24.3621 14.1518 23.0549 13.0314 21.5143 12.8563C20.9774 12.7979 20.4639 12.8563 19.9504 13.008C19.6469 13.1014 19.6469 13.1014 19.787 13.3815C20.2888 14.3619 20.5573 15.4123 20.5689 16.5211C20.5689 16.8712 20.3939 17.1046 20.1138 17.163C19.7286 17.233 19.4252 16.9762 19.4252 16.5444C19.4135 15.8675 19.3084 15.2139 19.075 14.5836C18.118 12.016 15.6787 10.4754 12.9593 10.6854C10.2166 10.8955 7.87065 13.1831 7.59054 15.9025C7.56719 16.1242 7.55552 16.3577 7.54385 16.5794C7.52051 16.9412 7.28709 17.1746 6.96029 17.163C6.6335 17.163 6.40007 16.9179 6.40007 16.5561C6.40007 15.4473 6.66851 14.3969 7.17037 13.4165C7.33377 13.1014 7.33377 13.1131 6.98363 13.008C4.7661 12.3311 2.44353 13.8133 2.14008 16.1009C2.11673 16.276 2.12841 16.4627 2.10506 16.6378C2.05838 16.9996 1.82495 17.198 1.49816 17.1746C1.18304 17.1513 0.984625 16.9179 0.984625 16.5561C0.961283 14.3736 2.57191 12.3544 4.75443 11.8409C5.7815 11.5958 6.78522 11.6892 7.7656 12.086C7.929 12.156 8.02237 12.1327 8.13909 12.0043C9.69136 10.2536 11.6404 9.42495 13.963 9.56501C15.8771 9.68172 17.4761 10.487 18.7599 11.9109C18.935 12.0977 19.04 12.156 19.3084 12.0627C22.2496 10.9189 25.4475 12.7746 25.9494 15.8908C25.961 15.9258 25.9727 15.9725 25.9844 16.0075C25.9844 16.2293 25.9844 16.5094 25.9844 16.7895Z" fill="#CCC6CA"/>
<path d="M13.4961 0.823242C15.6203 0.823242 17.3126 2.52724 17.3126 4.6514C17.3126 6.7639 15.6086 8.46789 13.4728 8.46789C11.3603 8.46789 9.66797 6.75222 9.66797 4.62806C9.67964 2.51557 11.3836 0.823242 13.4961 0.823242ZM16.1688 4.63973C16.1688 3.14582 14.99 1.96702 13.4961 1.96702C12.0022 1.96702 10.8234 3.14582 10.8118 4.63973C10.8118 6.13365 11.9905 7.32411 13.4845 7.32411C14.99 7.31244 16.1688 6.13365 16.1688 4.63973Z" fill="#CCC6CA"/>
<path d="M5.98008 5.16488C7.48566 5.16488 8.72281 6.40203 8.71114 7.89594C8.69947 9.38986 7.43898 10.6504 5.94506 10.6387C4.43947 10.627 3.214 9.38986 3.22567 7.86093C3.23734 6.36701 4.46282 5.15321 5.98008 5.16488ZM4.38112 7.88427C4.38112 8.77128 5.08139 9.4949 5.95673 9.4949C6.83207 9.50657 7.57903 8.75961 7.57903 7.88427C7.57903 6.99726 6.86709 6.29698 5.98008 6.29698C5.08139 6.30866 4.38112 6.98559 4.38112 7.88427Z" fill="#CCC6CA"/>
<path d="M21.106 5.16488C22.6116 5.16488 23.8371 6.40203 23.8371 7.90761C23.8371 9.40153 22.5883 10.6504 21.0944 10.6504C19.5888 10.6504 18.34 9.40153 18.3516 7.8726C18.3633 6.36701 19.6005 5.15321 21.106 5.16488ZM21.106 6.30866C20.2074 6.30866 19.5071 6.99726 19.5071 7.88427C19.5071 8.78295 20.219 9.50657 21.106 9.50657C21.9697 9.50657 22.705 8.78296 22.705 7.90761C22.705 7.0206 21.9814 6.30866 21.106 6.30866Z" fill="#CCC6CA"/>
</svg>
